<svg xmlns="http://www.w3.org/2000/svg" version="1.1" xmlns:xlink="http://www.w3.org/1999/xlink" xmlns:svgjs="http://svgjs.com/svgjs" width="1440" height="560" preserveAspectRatio="none" viewBox="0 0 1440 560"><g mask="url(&quot;#SvgjsMask1000&quot;)" fill="none"><rect width="1440" height="560" x="0" y="0" fill="#0e2a47"></rect><path d="M29.08 471.89 a6.16 6.16 0 1 0 12.32 0 a6.16 6.16 0 1 0 -12.32 0z" stroke="#e73635"></path><path d="M1164.75 36.98a53.63 53.63 0 1 0-82.51 68.53z" fill="#d3b714"></path><path d="M1417.34 189.31L1419.81 189.31L1419.81 198.45L1417.34 198.45z" stroke="#037b0b"></path><path d="M411.7 254.04L464.12 254.04L464.12 306.46L411.7 306.46z" fill="#d3b714"></path><path d="M1284.16 243.36a41.39 41.39 0 1 0-77.6-28.8z" fill="#e73635"></path><path d="M1125.96 344.51L1132.23 344.51L1132.23 350.78L1125.96 350.78z" stroke="#037b0b"></path><path d="M1037.72 18.73 a20.34 20.34 0 1 0 40.68 0 a20.34 20.34 0 1 0 -40.68 0z" stroke="#e73635"></path><path d="M639.74 410.32a20.34 20.34 0 1 0-18.76-36.1z" stroke="#037b0b"></path><path d="M987.61 347.46a22.97 22.97 0 1 0-34.79 30.01z" stroke="#e73635"></path><path d="M959.51 465.9 a1.9 1.9 0 1 0 3.8 0 a1.9 1.9 0 1 0 -3.8 0z" fill="#d3b714"></path><path d="M1218.2 228.85L1272.75 228.85L1272.75 280.66L1218.2 280.66z" stroke="#e73635"></path><path d="M309.69 444.46L353.86 444.46L353.86 488.32L309.69 488.32z" fill="#e73635"></path><path d="M837.55 383.21a3.7 3.7 0 1 0 6.05-4.26z" fill="#037b0b"></path><path d="M1288.27 544L1304.16 544L1304.16 559.89L1288.27 559.89z" stroke="#e73635"></path><path d="M753.38 262.17a8.59 8.59 0 1 0-17.12-1.42z" fill="#d3b714"></path><path d="M942.41 426.72L993.7 426.72L993.7 450.86L942.41 450.86z" stroke="#037b0b"></path><path d="M607.46 270.09 a27.02 27.02 0 1 0 54.04 0 a27.02 27.02 0 1 0 -54.04 0z" fill="#037b0b"></path><path d="M920.94 469.24L973.65 469.24L973.65 521.83L920.94 521.83z" stroke="#037b0b"></path><path d="M235.84 22.54L240.34 22.54L240.34 27.04L235.84 27.04z" stroke="#037b0b"></path><path d="M58.27 373.47 a42.22 42.22 0 1 0 84.44 0 a42.22 42.22 0 1 0 -84.44 0z" fill="#e73635"></path><path d="M1058.1 543.71a0.43 0.43 0 1 0-0.64 0.58z" fill="#037b0b"></path><path d="M651.95 20.67a21.16 21.16 0 1 0-24.52-34.5z" stroke="#e73635"></path><path d="M923.36 356.54a19.77 19.77 0 1 0 38.86-7.34z" stroke="#e73635"></path><path d="M1366.24 217.38L1400.59 217.38L1400.59 251.73L1366.24 251.73z" stroke="#e73635"></path><path d="M116.16 10.94 a50.43 50.43 0 1 0 100.86 0 a50.43 50.43 0 1 0 -100.86 0z" fill="#037b0b"></path><path d="M1126.69 554.64L1144.78 554.64L1144.78 572.73L1126.69 572.73z" stroke="#d3b714"></path><path d="M1133.44 38.51L1169.56 38.51L1169.56 74.63L1133.44 74.63z" fill="#037b0b"></path><path d="M1016.47 316.28 a17.29 17.29 0 1 0 34.58 0 a17.29 17.29 0 1 0 -34.58 0z" fill="#037b0b"></path><path d="M1094.14 443.8L1121.99 443.8L1121.99 471.65L1094.14 471.65z" stroke="#d3b714"></path><path d="M1036.58 476.31L1074.38 476.31L1074.38 514.11L1036.58 514.11z" stroke="#037b0b"></path><path d="M68.87 481.25 a49.82 49.82 0 1 0 99.64 0 a49.82 49.82 0 1 0 -99.64 0z" fill="#037b0b"></path><path d="M474.87-27.48a49.53 49.53 0 1 0-38.47 91.28z" fill="#d3b714"></path><path d="M223.43 144.8a52.28 52.28 0 1 0-12.26-103.84z" fill="#d3b714"></path></g><defs><mask id="SvgjsMask1000"><rect width="1440" height="560" fill="#ffffff"></rect></mask></defs></svg>